<svg xmlns="http://www.w3.org/2000/svg" viewBox="0 0 128 128"><g transform="translate(0 -924.362)"><rect width="128" height="128" y="924.362" ry="8" style="opacity:1;fill:#2980b9;fill-opacity:1;stroke:none;stroke-width:2;stroke-linecap:round;stroke-linejoin:bevel;stroke-miterlimit:4;stroke-dasharray:none;stroke-opacity:1"/><path d="m73.331 936.362-17.282 1.664v71.21l17.112-2.57v-30.368l22.993 33.676 18.04-5.71-23.561-32.391 23.75-30.538-18.418-4.236-22.804 30.539zm-39.197 17.359c-.196.052-.383.1-.53.244l-6.788 6.788a.88.88 0 0 0-.133 1.078l7.942 13.084a34 34 0 0 0-3.347 7.62L16.7 985.582a.87.87 0 0 0-.7.852v9.606c0 .406.27.756.662.85l14.163 3.461a34 34 0 0 0 3.479 8.811l-8.207 12.5a.87.87 0 0 0 .114 1.096l6.788 6.788a.886.886 0 0 0 1.078.136l12.858-7.81a34 34 0 0 0 8.112 3.385l2.987 14.409c.084.41.456.7.87.7h9.606a.88.88 0 0 0 .85-.682l3.518-14.427a34 34 0 0 0 8.357-3.517l12.67 8.301a.86.86 0 0 0 1.096-.116l6.788-6.788a.88.88 0 0 0 .133-1.078l-4.633-7.62-1.494.473a.52.52 0 0 1-.586-.184s-2.944-4.319-6.75-9.89c-4.551 8.907-13.815 14.995-24.506 14.995-15.19 0-27.494-12.303-27.494-27.494 0-11.174 6.656-20.787 16.224-25.091v-7.091a34 34 0 0 0-5.01 2.212h-.018l-12.952-8.509a.85.85 0 0 0-.567-.132z" style="display:inline;fill:#fcfcfc;fill-opacity:1"/></g></svg>